<svg width="36" height="36" viewBox="0 0 36 36" fill="none" xmlns="http://www.w3.org/2000/svg">
<path d="M18 26.42C21.3233 26.42 24.1552 24.3218 25.24 21.38H35.2053C33.628 29.4269 26.5246 35.5 18 35.5C9.47542 35.5 2.37198 29.4269 0.794719 21.38H10.76C11.8447 24.3218 14.6767 26.42 18 26.42ZM10.6373 16.42H0.538539C1.33836 7.49629 8.8502 0.5 18 0.5C27.1498 0.5 34.6616 7.49629 35.4615 16.42H25.3627C24.3828 13.2907 21.4572 11.02 18 11.02C14.5428 11.02 11.6172 13.2907 10.6373 16.42ZM21.8277 18.72C21.8277 20.8289 20.1148 22.54 18 22.54C15.8852 22.54 14.1723 20.8289 14.1723 18.72C14.1723 16.6111 15.8852 14.9 18 14.9C20.1148 14.9 21.8277 16.6111 21.8277 18.72Z" fill="#FFDF00" stroke="black"/>
</svg>
